# xmcd
#
# Track frame offsets:
#	150
#	15145
#	28895
#	46298
#	57408
#	73962
#	87918
#	101744
#	115459
#	130312
#
# Disc length: 1968 seconds
#
# Revision: 1
# Processed by: cddbd v1.5.2PL0 Copyright (c) Steve Scherf et al.
# Submitted via: audiograbber 1.83.01
#
DISCID=8a07ae0a
DTITLE=Joe Nichols - It's All Good
DYEAR=2011
DGENRE=Country
TTITLE0=Take It Off
TTITLE1=The More I Look
TTITLE2=Somebody's Mama
TTITLE3=It's All Good
TTITLE4=This Ole Boy
TTITLE5=I Can't Take My Eyes Off You
TTITLE6=No Truck, No Boat, No Girl
TTITLE7=Never Gonna Get Enough
TTITLE8=She's Just Like That
TTITLE9=How I Wanna Go
EXTD=
EXTT0=
EXTT1=
EXTT2=
EXTT3=
EXTT4=
EXTT5=
EXTT6=
EXTT7=
EXTT8=
EXTT9=
PLAYORDER=
